<svg width="20" height="26" xmlns="http://www.w3.org/2000/svg" xmlns:xlink="http://www.w3.org/1999/xlink" xmlns:svgjs="http://svgjs.com/svgjs" viewBox="0.507 0 18.987 26"><svg xmlns="http://www.w3.org/2000/svg" width="20" height="26" viewBox="3.935 1.141 18.073 24.749"><path paint-order="stroke fill markers" fill-rule="evenodd" d="M5.617 2.633C4.601 3.392 1.723 7.51 7.11 16.837c5.674 9.83 11.073 9.422 12.156 8.756l-3.826-6.445c-.904.531-1.666-.343-3.072-2.241-.024-.016-2.744-4.578-2.753-4.637-.563-1.225-1.016-2.478-.07-3.035L5.616 2.633zM21.6 24.235a.83.83 0 0 0 .292-1.144v-.005l-2.988-5.023a.836.836 0 0 0-1.143-.29l-1.83 1.078 3.836 6.462s1.83-1.074 1.83-1.076l.003-.002zM11.874 7.863a.828.828 0 0 0 .295-1.141v-.006L9.096 1.548a.835.835 0 0 0-1.143-.292l-1.83 1.08 3.921 6.605s1.83-1.072 1.83-1.075l.001-.003z"/></svg></svg>